<?xml version="1.0" encoding="UTF-8"?>
<svg xmlns="http://www.w3.org/2000/svg" xmlns:xlink="http://www.w3.org/1999/xlink" width="171pt" height="12pt" viewBox="0 0 171 12" version="1.1">
<g id="surface1">
<path style="fill:none;stroke-width:0.79701;stroke-linecap:butt;stroke-linejoin:miter;stroke:rgb(0%,0%,0%);stroke-opacity:1;stroke-miterlimit:10;" d="M 0.0005 -0.00046875 L 9.961438 -0.00046875 M 0.0005 -0.00046875 L 0.0005 9.964375 M 19.926281 -0.00046875 L 29.887219 -0.00046875 L 29.887219 9.964375 M 19.926281 9.964375 L 19.926281 -0.00046875 M 39.852063 -0.00046875 L 49.813 -0.00046875 L 49.813 9.964375 M 59.777844 -0.00046875 L 69.738781 -0.00046875 M 69.738781 9.964375 L 59.777844 9.964375 L 59.777844 -0.00046875 M 79.703625 -0.00046875 L 89.664563 -0.00046875 L 89.664563 9.964375 L 79.703625 9.964375 L 79.703625 -0.00046875 M 99.629406 -0.00046875 L 109.590344 -0.00046875 L 109.590344 9.964375 L 99.629406 9.964375 M 129.516125 9.964375 L 119.551281 9.964375 L 119.551281 -0.00046875 M 149.441906 -0.00046875 L 149.441906 9.964375 L 139.477062 9.964375 L 139.477062 -0.00046875 M 169.367687 -0.00046875 L 169.367687 9.964375 L 159.402844 9.964375 " transform="matrix(1,0,0,-1,0.812,11.355)"/>
</g>
</svg>
