<?xml version="1.0" encoding="UTF-8"?>
<svg xmlns="http://www.w3.org/2000/svg" xmlns:xlink="http://www.w3.org/1999/xlink" width="171pt" height="12pt" viewBox="0 0 171 12" version="1.1">
<g id="surface1">
<path style="fill:none;stroke-width:0.79701;stroke-linecap:butt;stroke-linejoin:miter;stroke:rgb(0%,0%,0%);stroke-opacity:1;stroke-miterlimit:10;" d="M -0.00125 0.00075 L 9.963594 0.00075 M -0.00125 0.00075 L -0.00125 9.961688 M 19.924531 0.00075 L 29.889375 0.00075 L 29.889375 9.961688 M 19.924531 9.961688 L 19.924531 0.00075 M 39.850312 0.00075 L 49.815156 0.00075 L 49.815156 9.961688 M 59.776094 0.00075 L 69.740938 0.00075 M 69.740938 9.961688 L 59.776094 9.961688 L 59.776094 0.00075 M 79.701875 0.00075 L 89.666719 0.00075 L 89.666719 9.961688 L 79.701875 9.961688 L 79.701875 0.00075 M 99.627656 0.00075 L 109.588594 0.00075 L 109.588594 9.961688 L 99.627656 9.961688 M 129.514375 9.961688 L 119.553438 9.961688 L 119.553438 0.00075 M 149.440156 0.00075 L 149.440156 9.961688 L 139.479219 9.961688 L 139.479219 0.00075 M 169.365938 0.00075 L 169.365938 9.961688 L 159.405 9.961688 " transform="matrix(1,0,0,-1,0.72,11.157)"/>
</g>
</svg>
