<?xml version="1.0" encoding="UTF-8"?>
<svg xmlns="http://www.w3.org/2000/svg" xmlns:xlink="http://www.w3.org/1999/xlink" width="71pt" height="22pt" viewBox="0 0 71 22" version="1.1">
<g id="surface1">
<path style="fill:none;stroke-width:0.79701;stroke-linecap:butt;stroke-linejoin:miter;stroke:rgb(0%,0%,0%);stroke-opacity:1;stroke-miterlimit:10;" d="M -0.00125 0.0000625 L 9.963594 0.0000625 L 9.963594 9.961 M 9.963594 -9.960875 L 19.924531 -9.960875 L 19.924531 0.0000625 L 9.963594 0.0000625 L 9.963594 -9.960875 M 19.924531 0.0000625 L 29.889375 0.0000625 M 19.924531 0.0000625 L 19.924531 9.961 M 39.850312 -9.960875 L 39.850312 0.0000625 L 29.889375 0.0000625 L 29.889375 -9.960875 M 39.850312 0.0000625 L 49.815156 0.0000625 L 49.815156 9.961 M 59.776094 -9.960875 L 59.776094 0.0000625 L 49.815156 0.0000625 M 59.776094 -9.960875 L 69.740938 -9.960875 M 69.740938 0.0000625 L 59.776094 0.0000625 L 59.776094 -9.960875 " transform="matrix(1,0,0,-1,0.72,10.961)"/>
</g>
</svg>
