<?xml version="1.0" encoding="UTF-8"?>
<svg xmlns="http://www.w3.org/2000/svg" xmlns:xlink="http://www.w3.org/1999/xlink" width="71pt" height="21pt" viewBox="0 0 71 21" version="1.1">
<g id="surface1">
<path style="fill:none;stroke-width:0.79701;stroke-linecap:butt;stroke-linejoin:miter;stroke:rgb(0%,0%,0%);stroke-opacity:1;stroke-miterlimit:10;" d="M 0.0005 -0.00115625 L 9.961438 -0.00115625 L 9.961438 9.963687 M 9.961438 -9.962094 L 19.926281 -9.962094 L 19.926281 -0.00115625 L 9.961438 -0.00115625 L 9.961438 -9.962094 M 19.926281 -0.00115625 L 29.887219 -0.00115625 M 19.926281 -0.00115625 L 19.926281 9.963687 M 39.852063 -9.962094 L 39.852063 -0.00115625 L 29.887219 -0.00115625 L 29.887219 -9.962094 M 39.852063 -0.00115625 L 49.813 -0.00115625 L 49.813 9.963687 M 59.777844 -9.962094 L 59.777844 -0.00115625 L 49.813 -0.00115625 M 59.777844 -9.962094 L 69.738781 -9.962094 M 69.738781 -0.00115625 L 59.777844 -0.00115625 L 59.777844 -9.962094 " transform="matrix(1,0,0,-1,0.812,10.159)"/>
</g>
</svg>
